<mxfile host="app.diagrams.net" modified="2023-06-01T00:45:37.713Z" agent="Mozilla/5.0 (Windows NT 10.0; Win64; x64) AppleWebKit/537.36 (KHTML, like Gecko) Chrome/113.0.0.0 Safari/537.36" etag="uMeTKdTGihiNndaT__Gh" version="21.3.5" type="device">
  <diagram name="페이지-1" id="tUUC2jxGGTLhK9K0wkMw">
    <mxGraphModel dx="1395" dy="657" grid="1" gridSize="10" guides="1" tooltips="1" connect="1" arrows="1" fold="1" page="1" pageScale="1" pageWidth="4681" pageHeight="3300" math="0" shadow="0">
      <root>
        <mxCell id="0" />
        <mxCell id="1" parent="0" />
        <mxCell id="qFy2dkPSHcF08o6lielo-7" style="edgeStyle=orthogonalEdgeStyle;rounded=0;orthogonalLoop=1;jettySize=auto;html=1;entryX=0;entryY=0.5;entryDx=0;entryDy=0;" edge="1" parent="1" source="qFy2dkPSHcF08o6lielo-1" target="qFy2dkPSHcF08o6lielo-5">
          <mxGeometry relative="1" as="geometry" />
        </mxCell>
        <mxCell id="qFy2dkPSHcF08o6lielo-1" value="유저" style="shape=umlActor;verticalLabelPosition=bottom;verticalAlign=top;html=1;outlineConnect=0;" vertex="1" parent="1">
          <mxGeometry x="280" y="200" width="40" height="80" as="geometry" />
        </mxCell>
        <mxCell id="qFy2dkPSHcF08o6lielo-11" style="edgeStyle=orthogonalEdgeStyle;rounded=0;orthogonalLoop=1;jettySize=auto;html=1;" edge="1" parent="1" source="qFy2dkPSHcF08o6lielo-5" target="qFy2dkPSHcF08o6lielo-8">
          <mxGeometry relative="1" as="geometry" />
        </mxCell>
        <mxCell id="qFy2dkPSHcF08o6lielo-12" style="edgeStyle=orthogonalEdgeStyle;rounded=0;orthogonalLoop=1;jettySize=auto;html=1;" edge="1" parent="1" source="qFy2dkPSHcF08o6lielo-5" target="qFy2dkPSHcF08o6lielo-9">
          <mxGeometry relative="1" as="geometry" />
        </mxCell>
        <mxCell id="qFy2dkPSHcF08o6lielo-14" style="edgeStyle=orthogonalEdgeStyle;rounded=0;orthogonalLoop=1;jettySize=auto;html=1;exitX=0.5;exitY=1;exitDx=0;exitDy=0;" edge="1" parent="1" source="qFy2dkPSHcF08o6lielo-5" target="qFy2dkPSHcF08o6lielo-10">
          <mxGeometry relative="1" as="geometry" />
        </mxCell>
        <mxCell id="qFy2dkPSHcF08o6lielo-23" style="edgeStyle=orthogonalEdgeStyle;rounded=0;orthogonalLoop=1;jettySize=auto;html=1;entryX=0;entryY=0.5;entryDx=0;entryDy=0;" edge="1" parent="1" source="qFy2dkPSHcF08o6lielo-5" target="qFy2dkPSHcF08o6lielo-22">
          <mxGeometry relative="1" as="geometry" />
        </mxCell>
        <mxCell id="qFy2dkPSHcF08o6lielo-5" value="로그인 하기" style="ellipse;whiteSpace=wrap;html=1;" vertex="1" parent="1">
          <mxGeometry x="440" y="200" width="120" height="80" as="geometry" />
        </mxCell>
        <mxCell id="qFy2dkPSHcF08o6lielo-17" style="edgeStyle=orthogonalEdgeStyle;rounded=0;orthogonalLoop=1;jettySize=auto;html=1;entryX=0.5;entryY=0;entryDx=0;entryDy=0;" edge="1" parent="1" source="qFy2dkPSHcF08o6lielo-8" target="qFy2dkPSHcF08o6lielo-15">
          <mxGeometry relative="1" as="geometry" />
        </mxCell>
        <mxCell id="qFy2dkPSHcF08o6lielo-8" value="회원가입 하기" style="ellipse;whiteSpace=wrap;html=1;" vertex="1" parent="1">
          <mxGeometry x="360" y="360" width="120" height="80" as="geometry" />
        </mxCell>
        <mxCell id="qFy2dkPSHcF08o6lielo-13" style="edgeStyle=orthogonalEdgeStyle;rounded=0;orthogonalLoop=1;jettySize=auto;html=1;" edge="1" parent="1" source="qFy2dkPSHcF08o6lielo-9" target="qFy2dkPSHcF08o6lielo-10">
          <mxGeometry relative="1" as="geometry" />
        </mxCell>
        <mxCell id="qFy2dkPSHcF08o6lielo-25" style="edgeStyle=orthogonalEdgeStyle;rounded=0;orthogonalLoop=1;jettySize=auto;html=1;entryX=0.5;entryY=1;entryDx=0;entryDy=0;exitX=0.5;exitY=1;exitDx=0;exitDy=0;" edge="1" parent="1" source="qFy2dkPSHcF08o6lielo-9" target="qFy2dkPSHcF08o6lielo-20">
          <mxGeometry relative="1" as="geometry">
            <Array as="points">
              <mxPoint x="580" y="500" />
              <mxPoint x="985" y="500" />
            </Array>
          </mxGeometry>
        </mxCell>
        <mxCell id="qFy2dkPSHcF08o6lielo-9" value="아이디 찾기" style="ellipse;whiteSpace=wrap;html=1;" vertex="1" parent="1">
          <mxGeometry x="520" y="360" width="120" height="80" as="geometry" />
        </mxCell>
        <mxCell id="qFy2dkPSHcF08o6lielo-26" style="edgeStyle=orthogonalEdgeStyle;rounded=0;orthogonalLoop=1;jettySize=auto;html=1;entryX=0.5;entryY=1;entryDx=0;entryDy=0;exitX=0.5;exitY=1;exitDx=0;exitDy=0;" edge="1" parent="1" source="qFy2dkPSHcF08o6lielo-10" target="qFy2dkPSHcF08o6lielo-20">
          <mxGeometry relative="1" as="geometry" />
        </mxCell>
        <mxCell id="qFy2dkPSHcF08o6lielo-10" value="비밀번호 찾기" style="ellipse;whiteSpace=wrap;html=1;" vertex="1" parent="1">
          <mxGeometry x="680" y="360" width="120" height="80" as="geometry" />
        </mxCell>
        <mxCell id="qFy2dkPSHcF08o6lielo-19" style="edgeStyle=orthogonalEdgeStyle;rounded=0;orthogonalLoop=1;jettySize=auto;html=1;entryX=0;entryY=0.5;entryDx=0;entryDy=0;" edge="1" parent="1" source="qFy2dkPSHcF08o6lielo-15" target="qFy2dkPSHcF08o6lielo-18">
          <mxGeometry relative="1" as="geometry" />
        </mxCell>
        <mxCell id="qFy2dkPSHcF08o6lielo-15" value="유효성 겅사하기" style="ellipse;whiteSpace=wrap;html=1;" vertex="1" parent="1">
          <mxGeometry x="360" y="520" width="120" height="80" as="geometry" />
        </mxCell>
        <mxCell id="qFy2dkPSHcF08o6lielo-16" value="&lt;h1&gt;유효성 검사&lt;/h1&gt;&lt;div&gt;이메일 중복 검사&lt;/div&gt;&lt;div&gt;이메일 형식 검사&lt;/div&gt;&lt;div&gt;비밀번호 적합성 검사&lt;/div&gt;" style="text;html=1;strokeColor=none;fillColor=none;spacing=5;spacingTop=-20;whiteSpace=wrap;overflow=hidden;rounded=0;" vertex="1" parent="1">
          <mxGeometry x="350" y="610" width="140" height="100" as="geometry" />
        </mxCell>
        <mxCell id="qFy2dkPSHcF08o6lielo-21" style="edgeStyle=orthogonalEdgeStyle;rounded=0;orthogonalLoop=1;jettySize=auto;html=1;entryX=0;entryY=0.5;entryDx=0;entryDy=0;" edge="1" parent="1" source="qFy2dkPSHcF08o6lielo-18" target="qFy2dkPSHcF08o6lielo-20">
          <mxGeometry relative="1" as="geometry">
            <Array as="points">
              <mxPoint x="860" y="560" />
              <mxPoint x="860" y="350" />
            </Array>
          </mxGeometry>
        </mxCell>
        <mxCell id="qFy2dkPSHcF08o6lielo-18" value="회원정보 저장하기" style="ellipse;whiteSpace=wrap;html=1;" vertex="1" parent="1">
          <mxGeometry x="600" y="520" width="120" height="80" as="geometry" />
        </mxCell>
        <mxCell id="qFy2dkPSHcF08o6lielo-20" value="회원정보 Table" style="shape=internalStorage;whiteSpace=wrap;html=1;backgroundOutline=1;" vertex="1" parent="1">
          <mxGeometry x="930" y="310" width="110" height="80" as="geometry" />
        </mxCell>
        <mxCell id="qFy2dkPSHcF08o6lielo-24" style="edgeStyle=orthogonalEdgeStyle;rounded=0;orthogonalLoop=1;jettySize=auto;html=1;" edge="1" parent="1" source="qFy2dkPSHcF08o6lielo-22" target="qFy2dkPSHcF08o6lielo-20">
          <mxGeometry relative="1" as="geometry" />
        </mxCell>
        <mxCell id="qFy2dkPSHcF08o6lielo-22" value="회원정보 조회 &lt;br&gt;로그인 승인하기" style="ellipse;whiteSpace=wrap;html=1;" vertex="1" parent="1">
          <mxGeometry x="640" y="200" width="120" height="80" as="geometry" />
        </mxCell>
      </root>
    </mxGraphModel>
  </diagram>
</mxfile>
